<?xml version="1.0" encoding="UTF-8" standalone="no"?>
<!-- Created with Inkscape (http://www.inkscape.org/) -->

<svg
   xmlns:dc="http://purl.org/dc/elements/1.1/"
   xmlns:cc="http://creativecommons.org/ns#"
   xmlns:rdf="http://www.w3.org/1999/02/22-rdf-syntax-ns#"
   xmlns:svg="http://www.w3.org/2000/svg"
   xmlns="http://www.w3.org/2000/svg"
   xmlns:xlink="http://www.w3.org/1999/xlink"
   xmlns:sodipodi="http://sodipodi.sourceforge.net/DTD/sodipodi-0.dtd"
   xmlns:inkscape="http://www.inkscape.org/namespaces/inkscape"
   width="512"
   height="512"
   viewBox="0 0 512.00001 512.00001"
   id="svg2"
   version="1.1"
   inkscape:version="0.91 r"
   sodipodi:docname="texture.pack.svg">
  <defs
     id="defs4">
    <linearGradient
       inkscape:collect="always"
       id="linearGradient4802">
      <stop
         style="stop-color:#ffffff;stop-opacity:1"
         offset="0"
         id="stop4804" />
      <stop
         style="stop-color:#fcffdc;stop-opacity:1"
         offset="1"
         id="stop4806" />
    </linearGradient>
    <radialGradient
       inkscape:collect="always"
       xlink:href="#linearGradient4802"
       id="radialGradient4808"
       cx="657.62994"
       cy="663.88904"
       fx="657.62994"
       fy="663.88904"
       r="125.81738"
       gradientTransform="matrix(1,0,0,1.0000233,-8.8436871,-26.026305)"
       gradientUnits="userSpaceOnUse" />
    <filter
       inkscape:collect="always"
       style="color-interpolation-filters:sRGB"
       id="filter5086"
       x="-0.036000419"
       width="1.0720008"
       y="-0.035999581"
       height="1.0719992">
      <feGaussianBlur
         inkscape:collect="always"
         stdDeviation="3.7745654"
         id="feGaussianBlur5088" />
    </filter>
  </defs>
  <sodipodi:namedview
     id="base"
     pagecolor="#ffffff"
     bordercolor="#666666"
     borderopacity="1.0"
     inkscape:pageopacity="0.0"
     inkscape:pageshadow="2"
     inkscape:zoom="1.0990671"
     inkscape:cx="219.18801"
     inkscape:cy="278.04377"
     inkscape:document-units="px"
     inkscape:current-layer="layer1"
     showgrid="false"
     units="px"
     showguides="true"
     inkscape:guide-bbox="true">
    <sodipodi:guide
       position="256.03818,357.61162"
       orientation="1,0"
       id="guide4695" />
    <sodipodi:guide
       position="14.095214,256.00885"
       orientation="0,1"
       id="guide4699" />
  </sodipodi:namedview>
  <metadata
     id="metadata7">
    <rdf:RDF>
      <cc:Work
         rdf:about="">
        <dc:format>image/svg+xml</dc:format>
        <dc:type
           rdf:resource="http://purl.org/dc/dcmitype/StillImage" />
        <dc:title></dc:title>
      </cc:Work>
    </rdf:RDF>
  </metadata>
  <g
     inkscape:label="Layer 1"
     inkscape:groupmode="layer"
     id="layer1"
     transform="translate(0,-540.36216)"
     style="display:inline">
    <rect
       style="color:#000000;display:inline;overflow:visible;visibility:visible;opacity:1;fill:#00ffff;fill-opacity:1;fill-rule:nonzero;stroke:none;stroke-width:34.12799835;stroke-linecap:butt;stroke-linejoin:miter;stroke-miterlimit:4;stroke-dasharray:none;stroke-dashoffset:0;stroke-opacity:1;marker:none;enable-background:accumulate"
       id="rect4783"
       width="196.286"
       height="48.776459"
       x="287.15186"
       y="896.59216"
       ry="3.3313999" />
    <path
       d="m 237.70848,668.54138 c 0,60.41165 -48.9722,109.38559 -109.38311,109.38559 -60.410128,0 -109.383102,-48.97321 -109.383102,-109.38559 0,-60.41164 48.972201,-109.38558 109.383102,-109.38558 60.41014,0 109.38311,48.97321 109.38311,109.38558 z"
       id="path2985-2-3-5"
       inkscape:connector-curvature="0"
       style="fill:none;stroke:#00ff00;stroke-width:32.86986923;stroke-miterlimit:4;stroke-dasharray:none;stroke-opacity:1" />
    <path
       d="m 71.427874,673.02377 36.179536,0 c -0.0625,-0.55485 -0.11434,-1.08421 -0.11434,-1.65714 l 0,-49.62724 c 0,-7.88684 2.61472,-14.22821 10.16127,-14.22821 l 22.57089,0 c 7.54663,0 10.88183,6.34167 10.88183,14.22821 l 0,49.62724 c 0,0.57293 -0.0516,1.10229 -0.11435,1.65714 l 35.51772,0 -57.54112,67.543 z"
       id="path2987-3-5-2-9"
       inkscape:connector-curvature="0"
       style="fill:#00ff00;fill-opacity:1" />
    <path
       d="m 237.34865,924.3966 c 0,60.41165 -48.9722,109.3855 -109.38311,109.3855 -60.410123,0 -109.383096,-48.97312 -109.383096,-109.3855 0,-60.41163 48.972203,-109.38557 109.383096,-109.38557 60.41014,0 109.38311,48.97321 109.38311,109.38557 z"
       id="path2985-2-3-5-3"
       inkscape:connector-curvature="0"
       style="fill:none;stroke:#00ff00;stroke-width:32.86986923;stroke-miterlimit:4;stroke-dasharray:none;stroke-opacity:1" />
    <path
       d="m 493.37287,924.19227 c 0,60.41165 -48.9722,109.38563 -109.38311,109.38563 -60.41013,0 -109.38311,-48.97325 -109.38311,-109.38563 0,-60.41163 48.9722,-109.38557 109.38311,-109.38557 60.41014,0 109.38311,48.97321 109.38311,109.38557 z"
       id="path2985-2-3-5-34"
       inkscape:connector-curvature="0"
       style="fill:none;stroke:#00ff00;stroke-width:32.86986923;stroke-miterlimit:4;stroke-dasharray:none;stroke-opacity:1" />
    <path
       d="m 327.09226,928.67466 36.17954,0 c -0.0625,-0.55485 -0.11434,-1.08421 -0.11434,-1.65714 l 0,-49.62723 c 0,-7.88684 2.61472,-14.22821 10.16127,-14.22821 l 22.57089,0 c 7.54663,0 10.88183,6.34167 10.88183,14.22821 l 0,49.62723 c 0,0.57293 -0.0516,1.10229 -0.11435,1.65714 l 35.51772,0 -57.54112,67.543 z"
       id="path2987-3-5-2-9-20"
       inkscape:connector-curvature="0"
       style="fill:#00ff00;fill-opacity:1" />
    <path
       style="color:#000000;font-style:normal;font-variant:normal;font-weight:normal;font-stretch:normal;font-size:medium;line-height:normal;font-family:sans-serif;text-indent:0;text-align:start;text-decoration:none;text-decoration-line:none;text-decoration-style:solid;text-decoration-color:#000000;letter-spacing:normal;word-spacing:normal;text-transform:none;direction:ltr;block-progression:tb;writing-mode:lr-tb;baseline-shift:baseline;text-anchor:start;white-space:normal;clip-rule:nonzero;display:inline;overflow:visible;visibility:visible;opacity:1;isolation:auto;mix-blend-mode:normal;color-interpolation:sRGB;color-interpolation-filters:linearRGB;solid-color:#000000;solid-opacity:1;fill:url(#radialGradient4808);fill-opacity:1;fill-rule:nonzero;stroke:none;stroke-width:32.86986923;stroke-linecap:butt;stroke-linejoin:miter;stroke-miterlimit:4;stroke-dasharray:none;stroke-dashoffset:0;stroke-opacity:1;filter:url(#filter5086);color-rendering:auto;image-rendering:auto;shape-rendering:auto;text-rendering:auto;enable-background:accumulate"
       d="m 648.78528,512.05789 c -69.29323,0 -125.81641,56.52678 -125.81641,125.82031 0,69.29431 56.52397,125.82031 125.81641,125.82031 69.29323,0 125.81835,-56.52676 125.81835,-125.82031 0,-69.29429 -56.52591,-125.82031 -125.81835,-125.82031 z"
       id="path2985-2-3-5-5"
       inkscape:connector-curvature="0"
       sodipodi:nodetypes="sssss"
       transform="matrix(0.94021793,0,0,0.94021793,-225.78476,69.04615)" />
  </g>
</svg>
